<?xml version="1.0" encoding="UTF-8" standalone="no"?>
<svg xmlns:dc="http://purl.org/dc/elements/1.1/" xmlns:cc="http://creativecommons.org/ns#" xmlns:rdf="http://www.w3.org/1999/02/22-rdf-syntax-ns#" xmlns:svg="http://www.w3.org/2000/svg" xmlns="http://www.w3.org/2000/svg" xmlns:sodipodi="http://sodipodi.sourceforge.net/DTD/sodipodi-0.dtd" xmlns:inkscape="http://www.inkscape.org/namespaces/inkscape" width="64" height="64" viewBox="0 0 64 64.000001" id="svg6485" version="1.1" inkscape:version="0.91 r" sodipodi:docname="move-rotate-change-arrow-repositon.svg">
  <defs id="defs6487">
    <inkscape:path-effect is_visible="true" id="path-effect4239" effect="spiro"/>
    <inkscape:path-effect effect="spiro" id="path-effect4223" is_visible="true"/>
    <inkscape:path-effect is_visible="true" id="path-effect4217" effect="spiro"/>
    <inkscape:path-effect effect="spiro" id="path-effect4213" is_visible="true"/>
    <inkscape:path-effect effect="spiro" id="path-effect5296" is_visible="true"/>
    <inkscape:path-effect effect="spiro" id="path-effect7060" is_visible="true"/>
  </defs>
  <sodipodi:namedview id="base" pagecolor="#ffffff" bordercolor="#666666" borderopacity="1.0" inkscape:pageopacity="0.0" inkscape:pageshadow="2" inkscape:zoom="3.3532329" inkscape:cx="33.854687" inkscape:cy="73.246826" inkscape:document-units="px" inkscape:current-layer="layer1" showgrid="true" units="px" inkscape:window-width="1309" inkscape:window-height="744" inkscape:window-x="57" inkscape:window-y="24" inkscape:window-maximized="1" inkscape:snap-global="false" showguides="true" inkscape:guide-bbox="true"/>
  
  <g inkscape:label="Layer 1" inkscape:groupmode="layer" id="layer1" transform="translate(0,-988.3622)">
    <path style="color:#000000;font-style:normal;font-variant:normal;font-weight:normal;font-stretch:normal;font-size:medium;line-height:normal;font-family:sans-serif;text-indent:0;text-align:start;text-decoration:none;text-decoration-line:none;text-decoration-style:solid;text-decoration-color:#000000;letter-spacing:normal;word-spacing:normal;text-transform:none;direction:ltr;block-progression:tb;writing-mode:lr-tb;baseline-shift:baseline;text-anchor:start;white-space:normal;clip-rule:nonzero;display:inline;overflow:visible;visibility:visible;opacity:1;isolation:auto;mix-blend-mode:normal;color-interpolation:sRGB;color-interpolation-filters:linearRGB;solid-color:#000000;solid-opacity:1;fill:#000000;fill-opacity:1;fill-rule:nonzero;stroke:none;stroke-width:0.99999994;stroke-linecap:round;stroke-linejoin:round;stroke-miterlimit:4;stroke-dasharray:none;stroke-dashoffset:0;stroke-opacity:1;color-rendering:auto;image-rendering:auto;shape-rendering:auto;text-rendering:auto;enable-background:accumulate" d="M 32 0 C 14.33083 0 4.7369516e-15 14.3308 0 32 C 0 49.6691 14.33083 64 32 64 C 49.66917 64 64 49.6691 64 32 C 64 14.3308 49.66917 0 32 0 z M 31.994141 9.4980469 C 32.128767 9.4965069 32.258326 9.5493313 32.353516 9.6445312 L 39.082031 16.410156 C 39.174612 16.503756 39.226549 16.630019 39.226562 16.761719 L 39.236328 20.828125 C 39.237898 21.275625 38.695709 21.499741 38.380859 21.181641 L 33.945312 16.705078 L 33.945312 30.058594 L 47.242188 30.058594 L 42.816406 25.65625 C 42.503585 25.34325 42.72157 24.812734 43.164062 24.802734 L 47.232422 24.769531 C 47.366376 24.768531 47.495134 24.821016 47.589844 24.916016 L 54.349609 31.642578 C 54.546041 31.838078 54.546041 32.156062 54.349609 32.351562 L 47.585938 39.078125 C 47.492337 39.170625 47.366014 39.222656 47.234375 39.222656 L 43.167969 39.234375 C 42.720333 39.235975 42.496252 38.693806 42.814453 38.378906 L 47.291016 33.943359 L 33.945312 33.943359 L 33.945312 47.292969 L 38.380859 42.816406 C 38.695709 42.498306 39.237928 42.722322 39.236328 43.169922 L 39.226562 47.236328 C 39.22655 47.368028 39.174611 47.493891 39.082031 47.587891 L 32.353516 54.353516 C 32.158029 54.550016 31.840017 54.550016 31.644531 54.353516 L 24.917969 47.591797 C 24.823958 47.496797 24.771937 47.368075 24.773438 47.234375 L 24.804688 43.167969 C 24.806599 42.722369 25.34663 42.501559 25.660156 42.818359 L 30.0625 47.244141 L 30.0625 33.943359 L 16.708984 33.943359 L 21.1875 38.378906 C 21.502251 38.693906 21.279284 39.232222 20.833984 39.232422 L 16.765625 39.222656 C 16.633985 39.222656 16.507662 39.171125 16.414062 39.078125 L 9.6640625 32.363281 C 9.6594105 32.359281 9.6548606 32.349609 9.6503906 32.349609 C 9.5475122 32.247409 9.4940662 32.105637 9.5039062 31.960938 C 9.5127236 31.840637 9.5647496 31.725625 9.6503906 31.640625 L 9.6738281 31.619141 L 16.412109 24.916016 C 16.506668 24.822516 16.634587 24.770484 16.767578 24.771484 L 20.835938 24.802734 C 21.280634 24.806434 21.499636 25.345303 21.183594 25.658203 L 16.757812 30.0625 L 30.064453 30.0625 L 30.064453 16.753906 L 25.660156 21.181641 C 25.34714 21.494541 24.811941 21.276484 24.806641 20.833984 L 24.773438 16.765625 C 24.771882 16.631925 24.823939 16.503203 24.917969 16.408203 L 31.644531 9.6464844 C 31.737328 9.5537044 31.862897 9.501 31.994141 9.5 L 31.994141 9.4980469 z " transform="translate(0,988.3622)" id="path5478"/>
  </g>

	<metadata>
		<rdf:RDF xmlns:rdf="http://www.w3.org/1999/02/22-rdf-syntax-ns#" xmlns:rdfs="http://www.w3.org/2000/01/rdf-schema#" xmlns:dc="http://purl.org/dc/elements/1.1/">
			<rdf:Description about="https://iconscout.com/legal#licenses" dc:title="move-rotate-change-arrow-repositon" dc:description="move-rotate-change-arrow-repositon" dc:publisher="Iconscout" dc:date="2017-04-07" dc:format="image/svg+xml" dc:language="en">
				<dc:creator>
					<rdf:Bag>
						<rdf:li>Devendra Karkar</rdf:li>
					</rdf:Bag>
				</dc:creator>
			</rdf:Description>
		</rdf:RDF>
    </metadata></svg>
