<?xml version="1.0" encoding="UTF-8" standalone="no"?>
<svg
   xmlns:dc="http://purl.org/dc/elements/1.1/"
   xmlns:cc="http://creativecommons.org/ns#"
   xmlns:rdf="http://www.w3.org/1999/02/22-rdf-syntax-ns#"
   xmlns:svg="http://www.w3.org/2000/svg"
   xmlns="http://www.w3.org/2000/svg"
   xmlns:sodipodi="http://sodipodi.sourceforge.net/DTD/sodipodi-0.dtd"
   xmlns:inkscape="http://www.inkscape.org/namespaces/inkscape"
   version="1.1"
   id="Layer_1"
   x="0px"
   y="0px"
   viewBox="0 0 16 16"
   xml:space="preserve"
   sodipodi:docname="select-rectangle(white).svg"
   inkscape:version="1.0.2 (e86c870879, 2021-01-15, custom)"><defs
     id="defs27" /><sodipodi:namedview
     pagecolor="#ffffff"
     bordercolor="#666666"
     borderopacity="1"
     objecttolerance="10"
     gridtolerance="10"
     guidetolerance="10"
     inkscape:pageopacity="0"
     inkscape:pageshadow="2"
     inkscape:window-width="1366"
     inkscape:window-height="705"
     id="namedview25"
     showgrid="false"
     inkscape:zoom="33.625"
     inkscape:cx="8"
     inkscape:cy="10.379182"
     inkscape:window-x="-8"
     inkscape:window-y="-8"
     inkscape:window-maximized="1"
     inkscape:current-layer="Layer_1" /><path
     d="M4 12h2v2H4z"
     id="path2"
     style="fill:#ffffff" /><path
     d="M0 13a1 1 0 0 0 1 1h1v-2H0v1z"
     id="path4"
     style="fill:#ffffff" /><path
     d="M0 8h2v2H0z"
     id="path6"
     style="fill:#ffffff" /><path
     d="M0 4h2v2H0z"
     id="path8"
     style="fill:#ffffff" /><path
     d="M0 1v1h2V0H1a1 1 0 0 0-1 1z"
     id="path10"
     style="fill:#ffffff" /><path
     d="M4 0h2v2H4z"
     id="path12"
     style="fill:#ffffff" /><path
     d="M8 0h2v2H8z"
     id="path14"
     style="fill:#ffffff" /><path
     d="M14 1a1 1 0 0 0-1-1h-1v2h2V1z"
     id="path16"
     style="fill:#ffffff" /><path
     d="M12 4h2v2h-2z"
     id="path18"
     style="fill:#ffffff" /><path
     d="M15.707 12.293l-5-5A1 1 0 0 0 9 8v7a1 1 0 0 0 1.707.707L12.414 14H15a1 1 0 0 0 .707-1.707zM12 12a1 1 0 0 0-.707.293l-.293.293v-2.172L12.586 12H12z"
     id="path20"
     style="fill:#ffffff" /><metadata
     id="metadata22"><rdf:RDF><rdf:Description
         about="https://iconscout.com/legal#licenses"
         dc:title="select-rectangle"
         dc:description="select-rectangle"
         dc:publisher="Iconscout"
         dc:date="2018-06-20"
         dc:format="image/svg+xml"
         dc:language="en"><dc:creator><rdf:Bag><rdf:li>Those Icons</rdf:li></rdf:Bag></dc:creator></rdf:Description><cc:Work
         rdf:about=""><dc:format>image/svg+xml</dc:format><dc:type
           rdf:resource="http://purl.org/dc/dcmitype/StillImage" /><dc:title></dc:title></cc:Work></rdf:RDF></metadata></svg>
