<?xml version="1.0" encoding="UTF-8"?><svg xmlns="http://www.w3.org/2000/svg" xmlns:xlink="http://www.w3.org/1999/xlink" version="1.1" id="Layer_1" x="0px" y="0px" viewBox="0 0 16 16" xml:space="preserve"><path d="M4 12h2v2H4z"/><path d="M0 13a1 1 0 0 0 1 1h1v-2H0v1z"/><path d="M0 8h2v2H0z"/><path d="M0 4h2v2H0z"/><path d="M0 1v1h2V0H1a1 1 0 0 0-1 1z"/><path d="M4 0h2v2H4z"/><path d="M8 0h2v2H8z"/><path d="M14 1a1 1 0 0 0-1-1h-1v2h2V1z"/><path d="M12 4h2v2h-2z"/><path d="M15.707 12.293l-5-5A1 1 0 0 0 9 8v7a1 1 0 0 0 1.707.707L12.414 14H15a1 1 0 0 0 .707-1.707zM12 12a1 1 0 0 0-.707.293l-.293.293v-2.172L12.586 12H12z"/><metadata><rdf:RDF xmlns:rdf="http://www.w3.org/1999/02/22-rdf-syntax-ns#" xmlns:rdfs="http://www.w3.org/2000/01/rdf-schema#" xmlns:dc="http://purl.org/dc/elements/1.1/"><rdf:Description about="https://iconscout.com/legal#licenses" dc:title="select-rectangle" dc:description="select-rectangle" dc:publisher="Iconscout" dc:date="2018-06-20" dc:format="image/svg+xml" dc:language="en"><dc:creator><rdf:Bag><rdf:li>Those Icons</rdf:li></rdf:Bag></dc:creator></rdf:Description></rdf:RDF></metadata></svg>