<?xml version="1.0" encoding="UTF-8" standalone="no"?>
<svg
   xmlns:dc="http://purl.org/dc/elements/1.1/"
   xmlns:cc="http://creativecommons.org/ns#"
   xmlns:rdf="http://www.w3.org/1999/02/22-rdf-syntax-ns#"
   xmlns:svg="http://www.w3.org/2000/svg"
   xmlns="http://www.w3.org/2000/svg"
   xmlns:sodipodi="http://sodipodi.sourceforge.net/DTD/sodipodi-0.dtd"
   xmlns:inkscape="http://www.inkscape.org/namespaces/inkscape"
   version="1.1"
   x="0px"
   y="0px"
   viewBox="0 0 1000 1000"
   enable-background="new 0 0 1000 1000"
   xml:space="preserve"
   id="svg58"
   sodipodi:docname="white_eraser.svg"
   inkscape:version="1.0.2 (e86c870879, 2021-01-15, custom)"><defs
   id="defs62" /><sodipodi:namedview
   pagecolor="#ffffff"
   bordercolor="#666666"
   borderopacity="1"
   objecttolerance="10"
   gridtolerance="10"
   guidetolerance="10"
   inkscape:pageopacity="0"
   inkscape:pageshadow="2"
   inkscape:window-width="1366"
   inkscape:window-height="705"
   id="namedview60"
   showgrid="false"
   inkscape:zoom="0.538"
   inkscape:cx="83.244315"
   inkscape:cy="500"
   inkscape:window-x="-8"
   inkscape:window-y="-8"
   inkscape:window-maximized="1"
   inkscape:current-layer="svg58" />
<metadata
   id="metadata50"> Svg Vector Icons : http://www.onlinewebfonts.com/icon <rdf:RDF><cc:Work
     rdf:about=""><dc:format>image/svg+xml</dc:format><dc:type
       rdf:resource="http://purl.org/dc/dcmitype/StillImage" /><dc:title></dc:title></cc:Work></rdf:RDF></metadata>
<g
   id="g56"
   style="fill:#ffffff;fill-opacity:0.92156863"><g
     transform="translate(0.000000,511.000000) scale(0.100000,-0.100000)"
     id="g54"
     style="fill:#ffffff;fill-opacity:0.92156863"><path
       d="M6457.1,4438.5c-281.4-74.7-323.5-109.1-1018.3-792.5c-352.2-348.4-1644.3-1629-2871.3-2848.3C980.6-777.7,318.3-1447.6,272.4-1522.3c-258.4-426.9-224-949.4,88.1-1322.7c51.7-63.2,392.4-405.8,758-760l660.4-647h2746.9h2744.9l51.7,40.2c70.8,55.5,70.8,170.4,0,225.9c-49.8,40.2-67,40.2-1160,40.2H5054l1709.4,1697.9C9822.2,790,9692.1,656,9770.5,820.7c172.3,354.1,172.3,696.8,1.9,1039.4c-63.2,128.3-141.7,210.6-1190.6,1259.5c-1183,1181-1219.3,1213.6-1477.8,1299.7C6924.1,4480.6,6640.8,4490.2,6457.1,4438.5z M4950.6-442.7l1588.8-1588.8l-957.1-957.1l-957.1-957.1H3256.6H1887.9l-662.3,666.1c-375.2,375.2-685.3,702.5-712.1,750.4c-95.7,168.4-132.1,403.9-90,589.6c49.8,210.6,38.3,199.1,1510.3,1674.9c775.2,775.3,1412.7,1410.8,1418.4,1410.8C3358,1146.1,4075.8,430.2,4950.6-442.7z"
       id="path52"
       style="fill:#ffffff;fill-opacity:0.92156863" /></g></g>
</svg>
